<svg width="244" height="28" viewBox="0 0 244 28" fill="none" xmlns="http://www.w3.org/2000/svg">
<g clip-path="url(#clip0_2783_8351)">
<path d="M243.588 27.2701C240.644 27.4842 239.887 27.9775 239.768 23.6767C239.727 22.2253 239.799 20.7682 239.716 19.3196C239.572 16.8592 238.618 15.8446 236.211 15.7065C234.055 15.5825 231.89 15.5994 229.732 15.5825C227.272 15.5628 227.189 15.4669 227.706 12.7416C229.812 12.7416 231.962 12.8177 234.104 12.7134C235.42 12.6514 236.775 12.4795 238.016 12.0652C239.876 11.4424 240.691 9.92048 240.644 7.76447C240.6 5.77192 239.641 4.33739 237.778 3.76245C236.78 3.45526 235.71 3.26079 234.668 3.24388C231.036 3.17906 227.401 3.21288 223.769 3.21852C223.504 3.21852 223.236 3.30307 222.841 3.37071V27.2278H219.673V0.481931C220.016 0.442475 220.364 0.369199 220.715 0.369199C225.5 0.363562 230.284 0.295922 235.064 0.414292C236.592 0.45093 238.176 0.80322 239.619 1.33588C242.444 2.37584 244.041 4.85878 244 7.68274C243.959 10.3911 242.339 12.5274 239.503 13.6322C239.188 13.7562 238.881 13.9084 238.226 14.2015C241.175 14.7454 242.778 16.2335 242.977 18.9983C243.077 20.399 243.055 21.8082 243.154 23.2089C243.251 24.5363 243.433 25.8581 243.588 27.2672V27.2701Z" fill="#121212"/>
<path d="M106.725 26.9009H103.732V15.2753H84.5627C84.5627 17.2988 84.5627 19.3027 84.5627 21.3065C84.5627 22.6649 84.5019 24.029 84.5793 25.3818C84.6456 26.557 84.3388 27.177 83.0618 26.9713C82.6168 26.9009 82.1524 26.96 81.5747 26.96V0.295919C81.7019 0.231098 81.7793 0.157821 81.8594 0.157821C85.1377 0.0676351 84.5074 -0.124011 84.5544 2.71122C84.5959 5.24207 84.56 7.77292 84.5683 10.301C84.5683 10.8026 84.6235 11.3043 84.6567 11.8398H103.652V0.208551H106.725V26.898V26.9009Z" fill="#121212"/>
<path d="M173.811 15.1062V12.1582C175.652 12.1582 177.432 12.1695 179.209 12.1554C180.923 12.1413 182.476 11.6622 183.723 10.3996C185.373 8.72552 185.365 6.4455 183.684 4.7996C182.462 3.60182 180.956 3.10016 179.289 3.0917C175.84 3.07761 172.39 3.13116 168.943 3.0607C167.821 3.03815 167.55 3.42708 167.555 4.50932C167.597 11.3973 167.578 18.2824 167.578 25.1704C167.578 25.7172 167.578 26.2639 167.578 26.6613C167.37 26.8389 167.34 26.8924 167.301 26.898C165.374 27.131 164.409 26.2649 164.407 24.2996C164.388 16.8507 164.366 9.40474 164.344 1.95592C164.344 1.40353 164.344 0.851137 164.344 0.222652C164.819 0.180377 165.173 0.124011 165.527 0.124011C170.17 0.118374 174.82 0.039461 179.461 0.169104C180.884 0.20856 182.393 0.603125 183.684 1.22034C186.396 2.51395 187.944 4.76015 187.841 7.91385C187.739 11.0281 185.92 12.9981 183.322 14.2663C182.39 14.7229 181.31 15.0132 180.279 15.0724C178.175 15.1936 176.063 15.109 173.808 15.109L173.811 15.1062Z" fill="#121212"/>
<path d="M140.16 0.186005H143.204V23.6739H158.387V26.8529H140.16V0.186005Z" fill="#121212"/>
<path d="M134.626 0.200104V3.25516H113.381V0.200104H134.626Z" fill="#121212"/>
<path d="M192.023 3.2439V0.214203H213.329V3.2439H192.023Z" fill="#121212"/>
<path d="M134.621 12.0089V15.0667H113.379V12.0089H134.621Z" fill="#121212"/>
<path d="M192.043 15.0611V12.0089H213.293V15.0611H192.043Z" fill="#121212"/>
<path d="M134.624 23.8092V26.8783H113.373V23.8092H134.624Z" fill="#121212"/>
<path d="M213.34 23.8486V26.8671H192.07V23.8486H213.34Z" fill="#121212"/>
<path d="M41.7189 0.045099C40.6077 3.73146 39.4551 7.20081 38.1946 10.6476C36.6661 14.8244 35.4084 19.1054 34.0374 23.3441C33.6421 24.5701 33.0202 25.7087 32.788 26.9995C32.6913 27.5406 32.3153 27.8365 31.7183 27.907C29.4489 28.1719 29.2029 28.0141 28.3848 25.8553C26.1071 19.8494 23.8046 13.8549 21.527 7.84902C21.3335 7.34173 20.8995 6.96689 20.7254 6.37223C19.5147 9.5372 18.3095 12.7022 17.0961 15.8671C15.6919 19.5338 14.2712 23.1948 12.8836 26.8699C12.3501 28.2847 11.1726 27.7745 10.1913 27.9042C9.34549 28.0141 9.01103 27.6393 8.74291 26.836C5.95944 18.46 3.13451 10.1009 0.328928 1.73609C-0.237717 0.0479174 -0.221132 0.138104 1.59213 0.0140975C2.98801 -0.0817253 3.65417 0.312839 4.10472 1.77273C6.1474 8.42678 8.33935 15.0329 10.4815 21.656C10.5672 21.9209 10.6695 22.1774 10.8354 22.6367C11.988 20.43 12.6652 18.212 13.5 16.0644C15.4625 10.9999 17.4278 5.93539 19.3323 0.84832C19.6805 -0.078907 20.3135 0.0704639 20.988 0.0338258C21.6458 -0.00281238 22.0715 0.124012 22.3424 0.862411C24.2524 6.07912 26.2011 11.2817 28.1664 16.4787C28.9127 18.4515 29.7281 20.3962 30.5491 22.4507C31.1544 21.997 31.2042 21.4108 31.3617 20.9147C33.4735 14.3452 35.5853 7.77857 37.6446 1.19215C37.9154 0.326931 38.2858 -0.0479055 39.1787 0.0281891C39.9526 0.0930105 40.7349 0.0422807 41.7216 0.0422807L41.7189 0.045099Z" fill="#FFDE31"/>
<path d="M64.6832 13.821C65.2056 14.0916 65.4654 14.2804 65.7557 14.365C68.705 15.2245 70.6095 17.3355 70.6813 19.855C70.7808 23.3638 69.2578 25.6692 66.0874 26.8163C64.4786 27.3997 62.834 27.6984 61.1202 27.69C56.3355 27.6674 51.5509 27.659 46.7662 27.7069C45.8125 27.7153 45.5195 27.4476 45.5223 26.4555C45.5582 18.0682 45.5582 9.68091 45.5223 1.29359C45.5195 0.332548 45.7407 0.0112592 46.733 0.0225324C51.4707 0.0760805 56.2112 -0.0141057 60.9489 0.0817171C62.7621 0.118355 64.5947 0.369186 66.2587 1.28514C68.8736 2.72812 70.1174 4.90386 69.8742 7.96174C69.6697 10.5377 68.166 12.1018 66.0597 13.2292C65.7032 13.4208 65.3134 13.5533 64.6832 13.8238V13.821ZM56.4406 24.5645C58.5938 24.4433 61.1755 24.8153 63.724 24.2573C66.22 23.7105 67.2704 22.1999 67.1073 19.3562C66.994 17.4059 65.4019 16.1208 63.1989 15.7628C60.6365 15.3457 58.0797 15.5797 55.5229 15.4923C53.3613 15.419 53.6129 15.9404 53.541 13.4828C53.5161 12.6289 53.7621 12.3301 54.6218 12.3527C56.6424 12.4062 58.6657 12.3245 60.6863 12.3837C61.7145 12.4147 62.6986 12.2428 63.6052 11.8426C65.5649 10.9745 66.455 10.2474 66.2864 6.94996C66.2062 5.4027 65.1973 4.11473 63.4255 3.60743C62.6018 3.3707 61.7311 3.18469 60.8798 3.17341C57.2947 3.12268 53.7096 3.16496 50.1246 3.13114C49.3727 3.12268 49.077 3.32278 49.0797 4.14573C49.1074 10.6053 49.1129 17.0649 49.077 23.5245C49.0714 24.4602 49.4639 24.5926 50.2324 24.5785C52.1617 24.5419 54.0938 24.5673 56.4351 24.5673L56.4406 24.5645Z" fill="#FFDE31"/>
</g>
<defs>
<clipPath id="clip0_2783_8351">
<rect width="244" height="28" fill="white"/>
</clipPath>
</defs>
</svg>
